<svg width="292" height="42" viewBox="0 0 292 42" fill="none" xmlns="http://www.w3.org/2000/svg">
<path d="M0 5.50234C0 6.15558 0.318248 6.4822 0.954743 6.4822H10.1756V34.8732C10.1756 35.5097 10.4938 35.828 11.1303 35.828H16.306C16.9425 35.828 17.2607 35.5097 17.2607 34.8732V20.6777V6.4822H26.7579C27.3777 6.4822 27.6875 6.15558 27.6875 5.50234V0.954743C27.6875 0.318247 27.3777 0 26.7579 0H0.954743C0.318248 0 0 0.318247 0 0.954743V5.50234Z" fill="#031E20"/>
<path d="M88.6247 20.5521C88.6247 21.8586 88.3902 23.0897 87.9212 24.2455C87.4689 25.4012 86.8324 26.4146 86.0117 27.2856C85.1909 28.1565 84.2194 28.8517 83.0972 29.3709C81.975 29.8734 80.7606 30.1247 79.4541 30.1247C78.1811 30.1247 76.9919 29.8818 75.8864 29.396C74.7976 28.8935 73.8429 28.2152 73.0221 27.3609C72.2182 26.4899 71.5817 25.4766 71.1127 24.3208C70.6604 23.1483 70.4343 21.8921 70.4343 20.5521C70.4343 19.1619 70.6688 17.8805 71.1378 16.708C71.6235 15.5355 72.2768 14.5221 73.0975 13.6679C73.9183 12.8137 74.873 12.152 75.9617 11.683C77.0672 11.1973 78.2314 10.9544 79.4541 10.9544C80.7271 10.9544 81.9163 11.214 83.0218 11.7333C84.1441 12.2358 85.1156 12.9225 85.9363 13.7935C86.7738 14.6645 87.427 15.6863 87.896 16.8588C88.3818 18.0145 88.6247 19.2456 88.6247 20.5521ZM95.4586 6.02996C95.4586 5.35996 95.1404 5.02496 94.5039 5.02496H90.4839C90.1489 5.02496 89.9144 5.10871 89.7804 5.27621C89.6464 5.44371 89.5543 5.69496 89.504 6.02996L89.0769 9.04493C87.7704 7.55419 86.3132 6.46545 84.7052 5.77871C83.0972 5.07521 81.2463 4.72347 79.1526 4.72347C77.0086 4.72347 74.9903 5.14221 73.0975 5.97971C71.2048 6.8172 69.5549 7.95619 68.1479 9.39668C66.7409 10.8204 65.6271 12.4954 64.8063 14.4216C63.9856 16.3479 63.5752 18.3997 63.5752 20.5772C63.5752 22.8887 64.0023 25.0159 64.8566 26.9589C65.7108 28.8852 66.8582 30.5518 68.2987 31.9588C69.7392 33.349 71.3974 34.4378 73.2734 35.225C75.1494 35.9955 77.1091 36.3807 79.1526 36.3807C80.9616 36.3807 82.6785 36.0206 84.3032 35.3004C85.9447 34.5801 87.4187 33.5835 88.7252 32.3105V34.3205C88.7252 34.756 88.8592 35.1161 89.1272 35.4009C89.4119 35.6856 89.772 35.828 90.2075 35.828H94.5039C95.1404 35.828 95.4586 35.493 95.4586 34.823V6.02996Z" fill="#031E20"/>
<path d="M109.949 17.713C109.949 16.5908 110.15 15.6276 110.552 14.8236C110.971 14.0029 111.49 13.3329 112.11 12.8137C112.73 12.2944 113.408 11.9175 114.145 11.683C114.882 11.4318 115.577 11.3062 116.231 11.3062C117.185 11.3062 118.031 11.4988 118.768 11.884C119.505 12.2693 120.125 12.7634 120.627 13.3664C121.147 13.9694 121.54 14.6478 121.808 15.4015C122.076 16.1553 122.21 16.909 122.21 17.6627V34.823C122.21 35.493 122.545 35.828 123.215 35.828H128.115C128.751 35.828 129.069 35.493 129.069 34.823V17.4366C129.069 16.5824 129.237 15.7868 129.572 15.0498C129.907 14.3128 130.359 13.6679 130.929 13.1152C131.498 12.5624 132.16 12.1269 132.913 11.8087C133.667 11.4904 134.454 11.3313 135.275 11.3313C136.263 11.3313 137.134 11.5239 137.888 11.9092C138.659 12.2777 139.304 12.7718 139.823 13.3915C140.342 13.9945 140.736 14.6813 141.004 15.4518C141.272 16.2055 141.406 16.976 141.406 17.7632V34.7979C141.406 35.4846 141.741 35.828 142.411 35.828H147.285C147.938 35.828 148.265 35.4846 148.265 34.7979V17.7632C148.265 16.0213 148.03 14.363 147.561 12.7885C147.092 11.214 146.372 9.83218 145.4 8.64294C144.446 7.4537 143.231 6.5157 141.757 5.82896C140.3 5.12546 138.575 4.77372 136.582 4.77372C135.325 4.77372 134.212 4.90772 133.24 5.17571C132.269 5.42696 131.398 5.78708 130.627 6.25608C129.857 6.72508 129.161 7.29457 128.542 7.96457C127.922 8.61781 127.344 9.34643 126.808 10.1504C125.853 8.29119 124.631 6.93445 123.14 6.08021C121.666 5.20921 119.916 4.77372 117.889 4.77372C116.113 4.77372 114.489 5.15896 113.015 5.92946C111.541 6.6832 110.251 7.75519 109.145 9.14543L108.794 6.25608C108.727 5.92108 108.559 5.63633 108.291 5.40184C108.023 5.15059 107.722 5.02496 107.387 5.02496H103.945C103.291 5.02496 102.965 5.36834 102.965 6.05508V34.7979C102.965 35.4846 103.291 35.828 103.945 35.828H108.919C109.639 35.828 109.983 35.4846 109.949 34.7979V17.713Z" fill="#031E20"/>
<path d="M179.539 34.8481C179.539 35.5014 179.849 35.828 180.468 35.828H185.544C186.23 35.828 186.574 35.5014 186.574 34.8481V0.979867C186.574 0.59462 186.473 0.343372 186.272 0.226122C186.071 0.0921234 185.87 0.0251241 185.669 0.0251241H180.468C180.15 0.0251241 179.916 0.125623 179.765 0.326623C179.614 0.51087 179.539 0.74537 179.539 1.03012V13.5925H163.484V0.979867C163.484 0.59462 163.384 0.343372 163.183 0.226122C162.982 0.0921234 162.781 0.0251241 162.58 0.0251241H157.379C157.06 0.0251241 156.826 0.125623 156.675 0.326623C156.524 0.51087 156.449 0.74537 156.449 1.03012V34.8481C156.449 35.5014 156.759 35.828 157.379 35.828H162.454C163.141 35.828 163.484 35.5014 163.484 34.8481V20.3762H179.539V34.8481Z" fill="#031E20"/>
<path d="M193.916 20.527C193.916 22.7045 194.327 24.7563 195.148 26.6826C195.985 28.6088 197.116 30.2922 198.539 31.7326C199.98 33.1564 201.663 34.287 203.59 35.1245C205.516 35.962 207.568 36.3807 209.745 36.3807C211.939 36.3807 214 35.962 215.926 35.1245C217.869 34.287 219.561 33.1564 221.001 31.7326C222.458 30.2922 223.606 28.6088 224.443 26.6826C225.281 24.7563 225.699 22.7045 225.699 20.527C225.699 18.3495 225.281 16.306 224.443 14.3965C223.606 12.4703 222.458 10.7953 221.001 9.37156C219.561 7.93107 217.869 6.80045 215.926 5.97971C213.983 5.14221 211.914 4.72347 209.72 4.72347C207.542 4.72347 205.491 5.14221 203.564 5.97971C201.638 6.80045 199.963 7.92269 198.539 9.34643C197.116 10.7702 195.985 12.4452 195.148 14.3714C194.327 16.2809 193.916 18.3327 193.916 20.527ZM200.801 20.527C200.801 19.2205 201.018 17.9977 201.454 16.8588C201.889 15.7198 202.501 14.7231 203.288 13.8689C204.092 13.0147 205.038 12.3447 206.127 11.8589C207.233 11.3732 208.439 11.1303 209.745 11.1303C211.068 11.1303 212.283 11.3815 213.388 11.884C214.51 12.3698 215.474 13.0398 216.278 13.894C217.082 14.7483 217.701 15.7449 218.137 16.8839C218.589 18.0229 218.815 19.2372 218.815 20.527C218.815 21.8167 218.589 23.0395 218.137 24.1952C217.701 25.3342 217.082 26.3392 216.278 27.2102C215.49 28.0644 214.536 28.7428 213.413 29.2453C212.308 29.7478 211.085 29.999 209.745 29.999C208.422 29.999 207.208 29.7478 206.102 29.2453C205.013 28.7428 204.075 28.0644 203.288 27.2102C202.501 26.3559 201.889 25.3593 201.454 24.2203C201.018 23.0646 200.801 21.8335 200.801 20.527Z" fill="#031E20"/>
<path d="M252.542 22.1601C252.542 23.6006 252.299 24.7982 251.813 25.7529C251.344 26.7077 250.775 27.4782 250.105 28.0644C249.435 28.6339 248.732 29.0443 247.995 29.2955C247.274 29.53 246.655 29.6473 246.135 29.6473C245.097 29.6473 244.159 29.4798 243.321 29.1448C242.484 28.8098 241.764 28.3492 241.161 27.7629C240.558 27.1599 240.08 26.4481 239.728 25.6273C239.393 24.8066 239.209 23.9021 239.176 22.9138V6.05508C239.176 5.36834 238.841 5.02496 238.171 5.02496H233.296C232.643 5.02496 232.317 5.36834 232.317 6.05508V23.0646C232.317 25.5101 232.693 27.5703 233.447 29.2453C234.201 30.9035 235.164 32.2435 236.337 33.2653C237.509 34.2703 238.799 34.9989 240.206 35.4511C241.613 35.8866 242.97 36.1044 244.276 36.1044C246.102 36.1044 247.777 35.761 249.301 35.0742C250.842 34.3708 252.165 33.2234 253.271 31.6321L253.949 34.622C254.016 34.957 254.184 35.2417 254.452 35.4762C254.72 35.7107 255.021 35.828 255.356 35.828H258.572C259.242 35.828 259.577 35.4846 259.577 34.7979V6.05508C259.577 5.36834 259.242 5.02496 258.572 5.02496H253.572C252.885 5.02496 252.542 5.36834 252.542 6.05508V22.1601Z" fill="#031E20"/>
<path d="M291.043 10.9293C291.26 10.678 291.369 10.3263 291.369 9.87405L291.394 6.00483C291.394 5.63633 291.327 5.38509 291.193 5.25109C291.076 5.10034 290.884 5.02496 290.616 5.02496H267.35C267.116 5.02496 266.915 5.10871 266.747 5.27621C266.58 5.42696 266.496 5.62796 266.496 5.87921V10.2761C266.496 10.4603 266.563 10.6445 266.697 10.8288C266.848 10.9963 267.065 11.08 267.35 11.08H283.254L266.395 30.5518C266.278 30.6858 266.178 30.8617 266.094 31.0794C266.01 31.2972 265.968 31.5149 265.968 31.7326V34.9235C265.968 35.2082 266.035 35.4344 266.169 35.6019C266.303 35.7526 266.513 35.828 266.797 35.828H290.59C290.825 35.828 291.026 35.7526 291.193 35.6019C291.361 35.4511 291.445 35.2501 291.445 34.9989V30.5518C291.445 30.3508 291.369 30.1665 291.219 29.999C291.085 29.8315 290.875 29.7478 290.59 29.7478H274.712L291.043 10.9293Z" fill="#031E20"/>
<path d="M43.1554 10.6282C44.1604 10.6282 45.1068 10.7957 45.9946 11.1307C46.8823 11.4489 47.6863 11.9011 48.4065 12.4874C49.1435 13.0736 49.7884 13.7771 50.3411 14.5979C50.9106 15.4019 51.3713 16.2896 51.723 17.2611H34.5125C34.8308 16.3399 35.2663 15.4772 35.819 14.6733C36.3885 13.8693 37.0417 13.1658 37.7787 12.5628C38.5325 11.9598 39.3616 11.4908 40.2661 11.1558C41.1706 10.804 42.1337 10.6282 43.1554 10.6282ZM50.7683 27.3864C50.3495 27.6879 49.9224 28.0145 49.4869 28.3663C49.0682 28.7013 48.574 29.0195 48.0045 29.321C47.4518 29.6058 46.7985 29.8403 46.0448 30.0245C45.2911 30.2088 44.3866 30.3009 43.3313 30.3009C42.2258 30.3009 41.179 30.1334 40.1907 29.7984C39.2025 29.4466 38.3064 28.9609 37.5024 28.3412C36.7151 27.7047 36.0367 26.9425 35.4673 26.0548C34.8978 25.1503 34.4874 24.1537 34.2361 23.0649H55.8435C56.346 23.0649 56.7563 23.0398 57.0746 22.9896C57.3928 22.9226 57.6441 22.8053 57.8283 22.6378C58.0126 22.4536 58.1382 22.2023 58.2052 21.8841C58.2722 21.5658 58.3057 21.1387 58.3057 20.6027C58.3057 18.7602 58.0796 17.0936 57.6273 15.6029C57.1918 14.0954 56.5972 12.7554 55.8435 11.5829C55.1065 10.4104 54.2355 9.39704 53.2305 8.5428C52.2255 7.68855 51.1535 6.98506 50.0145 6.43231C48.8923 5.86281 47.7365 5.44407 46.5473 5.17607C45.3748 4.89132 44.2274 4.74895 43.1052 4.74895C40.844 4.74895 38.7586 5.1677 36.8491 6.00519C34.9396 6.84268 33.2898 7.98167 31.8995 9.42216C30.526 10.8627 29.4457 12.546 28.6584 14.4723C27.8879 16.3817 27.5027 18.4252 27.5027 20.6027C27.5027 22.7802 27.9298 24.8237 28.7841 26.7332C29.6383 28.6427 30.7857 30.3176 32.2262 31.7581C33.6834 33.1819 35.3584 34.3125 37.2511 35.15C39.1606 35.9707 41.1706 36.3811 43.2811 36.3811C45.2911 36.3811 47.1838 36.0377 48.9593 35.351C50.7515 34.6642 52.5605 33.5252 54.3862 31.934C54.8552 31.5153 54.8804 31.0295 54.4616 30.4768L51.9994 27.4618C51.9156 27.3445 51.8235 27.2692 51.723 27.2357C51.6225 27.1854 51.522 27.1603 51.4215 27.1603C51.2038 27.1603 50.986 27.2357 50.7683 27.3864Z" fill="#031E20"/>
<path d="M193.859 20.2882C193.859 29.3367 201.151 36.6719 210.146 36.6719C219.141 36.6719 226.433 29.3367 226.433 20.2882C226.433 11.2397 219.141 3.9045 210.146 3.9045C201.151 3.9045 193.859 11.2397 193.859 20.2882Z" fill="#18BCA8"/>
<path d="M220.461 21.817C220.461 27.5959 215.776 32.2807 209.997 32.2807C204.218 32.2807 199.533 27.5959 199.533 21.817C199.533 16.038 204.218 11.3532 209.997 11.3532C215.776 11.3532 220.461 16.038 220.461 21.817Z" fill="#18BCA8"/>
<mask id="mask0_38_1538" style="mask-type:alpha" maskUnits="userSpaceOnUse" x="193" y="3" width="34" height="34">
<path d="M193.859 20.2882C193.859 29.3367 201.151 36.6719 210.146 36.6719C219.141 36.6719 226.433 29.3367 226.433 20.2882C226.433 11.2397 219.141 3.9045 210.146 3.9045C201.151 3.9045 193.859 11.2397 193.859 20.2882Z" fill="#18BCA8"/>
</mask>
<g mask="url(#mask0_38_1538)">
<path d="M210.161 29.0611C211.568 29.0611 212.772 28.5601 213.774 27.5587C214.775 26.5573 215.276 25.3525 215.276 23.9456V15.7603C215.276 14.3533 214.776 13.1491 213.774 12.1472C212.772 11.1454 211.568 10.6442 210.161 10.6442C208.754 10.6442 207.549 11.1454 206.548 12.1472C205.546 13.1489 205.045 14.3533 205.045 15.7603V23.9456C205.045 25.3525 205.546 26.5573 206.548 27.5587C207.549 28.5601 208.754 29.0611 210.161 29.0611Z" fill="white"/>
<path d="M219.066 21.1796C218.864 20.977 218.624 20.8757 218.346 20.8757C218.07 20.8757 217.83 20.977 217.627 21.1796C217.425 21.382 217.323 21.6218 217.323 21.8988V23.9453C217.323 25.9171 216.623 27.6037 215.221 29.0052C213.82 30.4068 212.133 31.1076 210.161 31.1076C208.189 31.1076 206.503 30.4068 205.101 29.0052C203.7 27.6041 202.999 25.9172 202.999 23.9453V21.8988C202.999 21.6218 202.898 21.382 202.695 21.1796C202.493 20.977 202.253 20.8757 201.976 20.8757C201.699 20.8757 201.459 20.977 201.256 21.1796C201.054 21.382 200.953 21.6218 200.953 21.8988V23.9453C200.953 26.3008 201.739 28.3499 203.311 30.0923C204.883 31.8348 206.825 32.8339 209.138 33.0895V45.8412H205.045C204.768 45.8412 204.528 45.9426 204.326 46.1451C204.123 46.3475 204.022 46.5874 204.022 46.8645C204.022 47.1412 204.123 47.3815 204.326 47.5839C204.528 47.7862 204.768 47.8878 205.045 47.8878H215.277C215.554 47.8878 215.794 47.7863 215.996 47.5839C216.199 47.3816 216.3 47.1412 216.3 46.8645C216.3 46.5874 216.199 46.3475 215.996 46.1451C215.794 45.9426 215.554 45.8412 215.277 45.8412H211.185V33.0895C213.497 32.8339 215.439 31.8348 217.012 30.0923C218.584 28.3499 219.37 26.3008 219.37 23.9453V21.8988C219.37 21.6219 219.269 21.3823 219.066 21.1796Z" fill="white"/>
</g>
<path d="M222.868 38.5649C223.397 38.8074 223.977 38.3447 223.858 37.775L222.337 30.4939C222.229 29.9765 221.613 29.7548 221.2 30.0845L215.959 34.2659C215.546 34.5956 215.626 35.2451 216.106 35.4653L222.868 38.5649Z" fill="#18BCA8"/>
<path fill-rule="evenodd" clip-rule="evenodd" d="M204.145 16.8511C204.145 16.5572 204.383 16.319 204.677 16.319H207.515C207.809 16.319 208.047 16.5572 208.047 16.8511C208.047 17.1449 207.809 17.3831 207.515 17.3831H204.677C204.383 17.3831 204.145 17.1449 204.145 16.8511Z" fill="#18BCA8"/>
<path fill-rule="evenodd" clip-rule="evenodd" d="M212.303 16.8511C212.303 16.5572 212.541 16.319 212.835 16.319H215.673C215.967 16.319 216.205 16.5572 216.205 16.8511C216.205 17.1449 215.967 17.3831 215.673 17.3831H212.835C212.541 17.3831 212.303 17.1449 212.303 16.8511Z" fill="#18BCA8"/>
<path fill-rule="evenodd" clip-rule="evenodd" d="M204.145 19.334C204.145 19.0401 204.383 18.8019 204.677 18.8019H207.515C207.809 18.8019 208.047 19.0401 208.047 19.334C208.047 19.6278 207.809 19.866 207.515 19.866H204.677C204.383 19.866 204.145 19.6278 204.145 19.334Z" fill="#18BCA8"/>
<path fill-rule="evenodd" clip-rule="evenodd" d="M212.303 19.334C212.303 19.0401 212.541 18.8019 212.835 18.8019H215.673C215.967 18.8019 216.205 19.0401 216.205 19.334C216.205 19.6278 215.967 19.866 215.673 19.866H212.835C212.541 19.866 212.303 19.6278 212.303 19.334Z" fill="#18BCA8"/>
<path fill-rule="evenodd" clip-rule="evenodd" d="M204.145 21.8169C204.145 21.523 204.383 21.2848 204.677 21.2848H207.515C207.809 21.2848 208.047 21.523 208.047 21.8169C208.047 22.1107 207.809 22.3489 207.515 22.3489H204.677C204.383 22.3489 204.145 22.1107 204.145 21.8169Z" fill="#18BCA8"/>
<path fill-rule="evenodd" clip-rule="evenodd" d="M212.303 21.8169C212.303 21.523 212.541 21.2848 212.835 21.2848H215.673C215.967 21.2848 216.205 21.523 216.205 21.8169C216.205 22.1107 215.967 22.3489 215.673 22.3489H212.835C212.541 22.3489 212.303 22.1107 212.303 21.8169Z" fill="#18BCA8"/>
</svg>
